*%FSLAX23Y23*%
*%MOIN*%
G01*
%ADD11C,0.001*%
%ADD12C,0.002*%
%ADD13C,0.003*%
%ADD14C,0.004*%
%ADD15C,0.005*%
%ADD16C,0.006*%
%ADD17C,0.007*%
%ADD18C,0.008*%
%ADD19C,0.009*%
%ADD20C,0.010*%
%ADD21C,0.011*%
%ADD22C,0.012*%
%ADD23C,0.013*%
%ADD24C,0.014*%
%ADD25C,0.015*%
%ADD26C,0.016*%
%ADD27C,0.017*%
%ADD28C,0.018*%
%ADD29C,0.019*%
%ADD30C,0.020*%
%ADD31C,0.021*%
%ADD32C,0.022*%
%ADD33C,0.023*%
%ADD34C,0.024*%
%ADD35C,0.025*%
%ADD36C,0.026*%
%ADD37C,0.027*%
%ADD38C,0.028*%
%ADD39C,0.029*%
%ADD40C,0.030*%
%ADD41C,0.031*%
%ADD42C,0.032*%
%ADD43C,0.033*%
%ADD44C,0.034*%
%ADD45C,0.035*%
%ADD46C,0.036*%
%ADD47C,0.037*%
%ADD48C,0.038*%
%ADD49C,0.039*%
%ADD50C,0.040*%
%ADD51C,0.042*%
%ADD52C,0.044*%
%ADD53C,0.046*%
%ADD54C,0.048*%
%ADD55C,0.050*%
%ADD56C,0.052*%
%ADD57C,0.054*%
%ADD58C,0.056*%
%ADD59C,0.058*%
%ADD60C,0.060*%
%ADD61C,0.062*%
%ADD62C,0.064*%
%ADD63C,0.066*%
%ADD64C,0.068*%
%ADD65C,0.070*%
%ADD66C,0.072*%
%ADD67C,0.074*%
%ADD68C,0.076*%
%ADD69C,0.078*%
%ADD70C,0.080*%
%ADD71C,0.082*%
%ADD72C,0.084*%
%ADD73C,0.086*%
%ADD74C,0.088*%
%ADD75C,0.090*%
%ADD76C,0.092*%
%ADD77C,0.094*%
%ADD78C,0.096*%
%ADD79C,0.098*%
%ADD80C,0.100*%
%ADD81C,0.102*%
%ADD82C,0.104*%
%ADD83C,0.106*%
%ADD84C,0.108*%
%ADD85C,0.110*%
%ADD86C,0.112*%
%ADD87C,0.114*%
%ADD88C,0.116*%
%ADD89C,0.118*%
%ADD90C,0.120*%
%ADD91C,0.124*%
%ADD92C,0.128*%
%ADD93C,0.132*%
%ADD94C,0.136*%
%ADD95C,0.140*%
%ADD96C,0.144*%
%ADD97C,0.148*%
%ADD98C,0.152*%
%ADD99C,0.156*%
%ADD100C,0.160*%
%ADD101C,0.164*%
%ADD102C,0.168*%
%ADD103C,0.172*%
%ADD104C,0.176*%
%ADD105C,0.180*%
%ADD106C,0.184*%
%ADD107C,0.188*%
%ADD108C,0.192*%
%ADD109C,0.196*%
%ADD110C,0.200*%
%ADD111C,0.208*%
%ADD112C,0.240*%
%ADD113C,0.248*%
%ADD114C,0.280*%
%ADD115C,0.288*%
%ADD116C,0.320*%
%ADD117C,0.328*%
%ADD118C,0.360*%
%ADD119C,0.368*%
%ADD120C,0.400*%
%ADD121C,0.408*%
%ADD122C,0.440*%
%ADD123C,0.448*%
%ADD124C,0.480*%
%ADD125R,0.001X0.001*%
%ADD126R,0.002X0.002*%
%ADD127R,0.004X0.004*%
%ADD128R,0.006X0.006*%
%ADD129R,0.008X0.008*%
%ADD130R,0.010X0.010*%
%ADD131R,0.011X0.011*%
%ADD132R,0.012X0.012*%
%ADD133R,0.013X0.013*%
%ADD134R,0.014X0.014*%
%ADD135R,0.015X0.015*%
%ADD136R,0.016X0.016*%
%ADD137R,0.017X0.017*%
%ADD138R,0.018X0.018*%
%ADD139R,0.019X0.019*%
%ADD140R,0.020X0.020*%
%ADD141R,0.021X0.021*%
%ADD142R,0.022X0.022*%
%ADD143R,0.023X0.023*%
%ADD144R,0.024X0.024*%
%ADD145R,0.025X0.025*%
%ADD146R,0.026X0.026*%
%ADD147R,0.027X0.027*%
%ADD148R,0.028X0.028*%
%ADD149R,0.029X0.029*%
%ADD150R,0.030X0.030*%
%ADD151R,0.031X0.031*%
%ADD152R,0.032X0.032*%
%ADD153R,0.033X0.033*%
%ADD154R,0.034X0.034*%
%ADD155R,0.035X0.035*%
%ADD156R,0.036X0.036*%
%ADD157R,0.037X0.037*%
%ADD158R,0.038X0.038*%
%ADD159R,0.039X0.039*%
%ADD160R,0.040X0.040*%
%ADD161R,0.042X0.042*%
%ADD162R,0.044X0.044*%
%ADD163R,0.046X0.046*%
%ADD164R,0.048X0.048*%
%ADD165R,0.050X0.050*%
%ADD166R,0.052X0.052*%
%ADD167R,0.054X0.054*%
%ADD168R,0.056X0.056*%
%ADD169R,0.058X0.058*%
%ADD170R,0.060X0.060*%
%ADD171R,0.062X0.062*%
%ADD172R,0.064X0.064*%
%ADD173R,0.066X0.066*%
%ADD174R,0.068X0.068*%
%ADD175R,0.070X0.070*%
%ADD176R,0.072X0.072*%
%ADD177R,0.074X0.074*%
%ADD178R,0.076X0.076*%
%ADD179R,0.078X0.078*%
%ADD180R,0.080X0.080*%
%ADD181R,0.082X0.082*%
%ADD182R,0.084X0.084*%
%ADD183R,0.086X0.086*%
%ADD184R,0.088X0.088*%
%ADD185R,0.090X0.090*%
%ADD186R,0.092X0.092*%
%ADD187R,0.094X0.094*%
%ADD188R,0.096X0.096*%
%ADD189R,0.098X0.098*%
%ADD190R,0.100X0.100*%
%ADD191R,0.102X0.102*%
%ADD192R,0.104X0.104*%
%ADD193R,0.106X0.106*%
%ADD194R,0.108X0.108*%
%ADD195R,0.110X0.110*%
%ADD196R,0.112X0.112*%
%ADD197R,0.114X0.114*%
%ADD198R,0.116X0.116*%
%ADD199R,0.118X0.118*%
%ADD200R,0.120X0.120*%
%ADD201R,0.124X0.124*%
%ADD202R,0.128X0.128*%
%ADD203R,0.132X0.132*%
%ADD204R,0.136X0.136*%
%ADD205R,0.140X0.140*%
%ADD206R,0.144X0.144*%
%ADD207R,0.148X0.148*%
%ADD208R,0.152X0.152*%
%ADD209R,0.156X0.156*%
%ADD210R,0.160X0.160*%
%ADD211R,0.164X0.164*%
%ADD212R,0.168X0.168*%
%ADD213R,0.172X0.172*%
%ADD214R,0.176X0.176*%
%ADD215R,0.180X0.180*%
%ADD216R,0.184X0.184*%
%ADD217R,0.188X0.188*%
%ADD218R,0.192X0.192*%
%ADD219R,0.196X0.196*%
%ADD220R,0.200X0.200*%
%ADD221R,0.208X0.208*%
%ADD222R,0.240X0.240*%
%ADD223R,0.248X0.248*%
%ADD224R,0.280X0.280*%
%ADD225R,0.288X0.288*%
%ADD226R,0.320X0.320*%
%ADD227R,0.328X0.328*%
%ADD228R,0.360X0.360*%
%ADD229R,0.368X0.368*%
%ADD230R,0.400X0.400*%
%ADD231R,0.408X0.408*%
%ADD232R,0.440X0.440*%
%ADD233R,0.448X0.448*%
%ADD234R,0.480X0.480*%
D14*
X4400Y6562D02*
X7250D01*
X7340Y6472D02*
X4310D01*
X4400Y6562D02*
Y9437D01*
X4310Y9527D02*
Y6472D01*
X4325Y6487D02*
X4350Y6512D01*
X4400Y9437D02*
X7250D01*
X7340Y9527D02*
X4310D01*
X7250Y9437D02*
Y6562D01*
X7340Y6472D02*
Y9527D01*
D30*
X5575Y7062D02*
X5400Y6887D01*
X4730Y7362D02*
X4550Y7542D01*
X4830Y6842D02*
X5470D01*
X4625Y7537D02*
Y7727D01*
X4550Y7542D02*
Y8037D01*
X4670Y7772D02*
X4625Y7727D01*
Y7537D02*
X4650Y7512D01*
X4875Y6937D02*
X5375D01*
X5400Y6887D02*
X4855D01*
X4825Y6987D02*
Y7112D01*
X4775Y6967D02*
Y7362D01*
X4730D02*
Y6942D01*
X4770Y7599D02*
Y7753D01*
X4875Y7162D02*
X4825Y7112D01*
Y6987D02*
X4875Y6937D01*
X4775Y7362D02*
X4825Y7412D01*
X4775Y6967D02*
X4855Y6887D01*
X4830Y6842D02*
X4730Y6942D01*
X4870Y7162D02*
X4950D01*
X5680Y7112D02*
X5745D01*
X5615Y7177D02*
X5510D01*
X4975Y7187D02*
Y7197D01*
X4925Y7287D02*
Y7512D01*
X4975Y7287D02*
Y7272D01*
Y7197D02*
X4940Y7162D01*
X4950D02*
X4975Y7187D01*
Y7272D02*
X4960Y7287D01*
X4975D02*
X4870D01*
X6475Y7362D02*
X6780D01*
X6275D02*
X6225D01*
X4770Y7597D02*
X4680D01*
X4650Y7512D02*
X5300D01*
X4570Y7597D02*
X4550D01*
X6650Y7487D02*
X6780D01*
X5375Y7437D02*
Y7387D01*
Y7162D02*
Y7087D01*
X5425Y7322D02*
Y7477D01*
X5475Y7037D02*
X5375Y6937D01*
Y7437D02*
X5300Y7512D01*
X5625Y7712D02*
X6200D01*
X6495Y7762D02*
X6725D01*
X6740Y7637D02*
X6650D01*
X5475Y7142D02*
Y7037D01*
X5575Y7062D02*
Y7087D01*
X5615Y7177D02*
X5680Y7112D01*
X5510Y7177D02*
X5475Y7142D01*
X5565Y6937D02*
X5470Y6842D01*
X4808Y7847D02*
X4672D01*
X6800Y7837D02*
X6950D01*
X6300Y7612D02*
X6200Y7712D01*
X6300Y7612D02*
Y7387D01*
X6275Y7362D01*
X6445Y7392D02*
Y7712D01*
X6495Y7762D01*
X6625Y7662D02*
X6650Y7637D01*
X6445Y7392D02*
X6475Y7362D01*
X6650Y7472D02*
Y7487D01*
X6725Y7762D02*
X6800Y7837D01*
D50*
X4850Y9067D02*
X4800Y9017D01*
X4875Y7962D02*
X4925Y7912D01*
Y7837D02*
X5000Y7912D01*
X5625D02*
X5825Y8112D01*
X5975D02*
X6025Y8062D01*
Y7912D02*
X5900Y7787D01*
X6375D02*
X6425Y7837D01*
X6700D02*
X6875Y8012D01*
X6750Y7987D02*
X6700Y7937D01*
X6575D02*
X6400Y8112D01*
X6225D02*
X6050Y8287D01*
X4550Y7912D02*
X4475Y7987D01*
X4550Y7912D02*
X4650Y8012D01*
Y8917D02*
X4525Y9042D01*
X4475Y8992D01*
X4680Y6907D02*
X4720Y6867D01*
X4800Y6787D01*
X5535D02*
X5590Y6842D01*
X6845D02*
X6905Y6902D01*
X6625Y8287D02*
X6475Y8437D01*
X6325D02*
X6200Y8312D01*
X6125Y8387D01*
X4700Y9337D02*
X4625Y9262D01*
X4575Y9312D01*
X4975Y9337D02*
X5050Y9262D01*
X5675Y7487D02*
X5700Y7462D01*
X5750Y7487D02*
X5925Y7312D01*
X5700D02*
X5650Y7262D01*
X5625Y7287D02*
X5700Y7362D01*
X5525Y7287D02*
X5475Y7237D01*
X4675Y7337D02*
X4495Y7517D01*
Y7842D02*
X4450Y7887D01*
X6075Y7512D02*
X6125Y7462D01*
X5975Y7387D02*
X5890Y7472D01*
X5975Y7227D02*
X6090Y7112D01*
X5965Y7062D02*
X5915Y7112D01*
X5965Y6997D02*
X6000Y6962D01*
X7100Y6987D02*
X7200Y7087D01*
Y8062D02*
X7150Y8112D01*
X4985Y7912D02*
X4845Y7772D01*
X6020Y8202D02*
X6200Y8022D01*
X6015Y7912D02*
X5900Y7797D01*
X6575Y7162D02*
X6675Y7262D01*
X6850Y6987D02*
X6800Y6937D01*
X6750Y7062D02*
X6825Y7137D01*
X6850Y7262D02*
X6925Y7337D01*
X6950D02*
X7125Y7512D01*
X6750Y7912D02*
X6850Y8012D01*
X5900Y7987D02*
X5785Y7872D01*
X5625Y7712D02*
X5525Y7812D01*
X5425Y7712D02*
X5525Y7612D01*
Y7487D02*
X5475Y7437D01*
X5425Y7562D02*
X5355Y7632D01*
X4980D02*
X4925Y7687D01*
Y7737D02*
X5000Y7812D01*
X5250Y7412D02*
X5275Y7387D01*
X6050Y7312D02*
X6125Y7237D01*
X6200Y7162D01*
X6625Y8037D02*
X6400Y8262D01*
X5190Y7302D02*
X5150Y7262D01*
Y7087D02*
X5075Y7012D01*
X6125Y7237D02*
X6205Y7162D01*
X7025Y8012D02*
X7125Y7912D01*
X4550Y8787D02*
X4525Y8812D01*
X6900Y6607D02*
X7200D01*
X7190Y6647D02*
X6910D01*
X4720Y6607D02*
X4450D01*
X4460Y6647D02*
X4710D01*
X4720Y6607D02*
X6905D01*
X6895Y6647D02*
X4730D01*
X4675Y6607D02*
X4450D01*
X4460Y6647D02*
X4665D01*
X4475Y7987D02*
Y8992D01*
X4450Y6907D02*
Y6607D01*
Y7887D01*
X6910Y6686D02*
X7190D01*
Y6725D02*
X6910D01*
Y6764D02*
X7190D01*
Y6803D02*
X6910D01*
Y6842D02*
X7190D01*
X4710Y6686D02*
X4460D01*
Y6725D02*
X4710D01*
Y6764D02*
X4460D01*
Y6803D02*
X4710D01*
Y6842D02*
X4460D01*
X4800Y6787D02*
X5535D01*
X5590Y6842D02*
X6845D01*
X6895Y6686D02*
X4730D01*
Y6725D02*
X6895D01*
Y6764D02*
X4730D01*
X5561Y6803D02*
X6895D01*
X4774D02*
X4730D01*
X5600Y6842D02*
X6895D01*
X4735D02*
X4730D01*
X4665Y6686D02*
X4460D01*
Y6725D02*
X4665D01*
Y6764D02*
X4460D01*
Y6803D02*
X4665D01*
Y6842D02*
X4460D01*
X4650Y8012D02*
Y8917D01*
X4575Y9312D02*
Y9387D01*
X4675Y7337D02*
Y6607D01*
X4495Y7517D02*
Y7842D01*
X4625Y9182D02*
Y9337D01*
X4525Y9122D02*
Y8812D01*
X4550Y8787D02*
Y8037D01*
X6900Y6907D02*
X7200D01*
X7190Y6881D02*
X6910D01*
X4680Y6907D02*
X4450D01*
X4460Y6881D02*
X4696D01*
X6894D02*
X6895D01*
X4665D02*
X4460D01*
Y6920D02*
X4665D01*
Y6959D02*
X4460D01*
Y6998D02*
X4665D01*
Y7037D02*
X4460D01*
X6850Y6987D02*
X7100D01*
X6310Y6937D02*
X6100D01*
X6385D02*
X6485D01*
X6560D02*
X6660D01*
X6735D02*
X6800D01*
X5075Y7012D02*
X4925D01*
X5640Y6937D02*
X5715D01*
X5790D02*
X5900D01*
X4850Y9067D02*
Y9237D01*
X4800Y9017D02*
Y7962D01*
X4720Y6867D02*
Y6607D01*
X4808Y7843D02*
Y7851D01*
X4845Y7751D02*
Y7743D01*
X4770D02*
Y7751D01*
Y7609D02*
Y7585D01*
X4845D02*
Y7609D01*
X4730Y7847D02*
Y9152D01*
X4850Y8687D02*
Y8037D01*
X4845Y7772D02*
Y7751D01*
Y7743D02*
Y7609D01*
X4665Y7076D02*
X4460D01*
Y7115D02*
X4665D01*
Y7154D02*
X4460D01*
Y7193D02*
X4665D01*
Y7232D02*
X4460D01*
X4963Y7197D02*
X4987D01*
X5263Y7162D02*
X5287D01*
X5363D02*
X5387D01*
X5875Y7112D02*
X5915D01*
X5865D02*
X5745D01*
X6040Y7062D02*
X6145D01*
X6220D02*
X6375D01*
X6475D02*
X6750D01*
X6575Y7162D02*
X6200D01*
X6825Y7137D02*
X6950D01*
X5275Y7087D02*
X5150D01*
X4925Y7837D02*
Y7912D01*
X4900Y8437D02*
Y9237D01*
X5025Y9137D02*
Y8512D01*
X4925Y7737D02*
Y7687D01*
X5700Y7312D02*
X5925D01*
X5875Y7352D02*
X5710D01*
Y7391D02*
X5836D01*
X5797Y7430D02*
X5710D01*
X5625Y7287D02*
X5525D01*
X5475Y7237D02*
X5650D01*
X5655Y7277D02*
X5525D01*
X5664Y7316D02*
X5690D01*
X5693Y7355D02*
X5700D01*
X4665Y7271D02*
X4460D01*
Y7310D02*
X4665D01*
X4653Y7349D02*
X4460D01*
Y7388D02*
X4614D01*
X4575Y7427D02*
X4460D01*
X4963Y7272D02*
X4987D01*
X5263Y7237D02*
X5287D01*
X5363D02*
X5387D01*
X6638Y7397D02*
X6662D01*
X6770Y7362D02*
X6525D01*
X6925Y7337D02*
X6950D01*
X6850Y7262D02*
X6675D01*
X5250Y7412D02*
X5025D01*
X5287Y7237D02*
X5363D01*
X5387D02*
X5740D01*
Y7312D02*
X6050D01*
X5425Y7302D02*
X5190D01*
X5200Y8437D02*
Y8987D01*
X5150Y7262D02*
Y7087D01*
X5675Y7487D02*
X5750D01*
X5758Y7469D02*
X5703D01*
X4536Y7466D02*
X4460D01*
Y7505D02*
X4497D01*
X4485Y7544D02*
X4460D01*
Y7583D02*
X4485D01*
Y7622D02*
X4460D01*
X6638Y7472D02*
X6662D01*
X6087Y7587D02*
X6063D01*
Y7512D02*
X6087D01*
X6063D02*
X5965D01*
X5740Y7487D02*
X5635D01*
X5525Y7612D02*
X6075D01*
X6125Y7462D02*
X6225D01*
X6650Y7487D02*
X6770D01*
X5560D02*
X5525D01*
X5400Y8287D02*
Y8987D01*
X5425Y7562D02*
Y7477D01*
Y7322D02*
Y7302D01*
X5275Y7162D02*
Y7087D01*
X5900Y7787D02*
X6375D01*
X4485Y7661D02*
X4460D01*
Y7700D02*
X4485D01*
Y7739D02*
X4460D01*
Y7778D02*
X4485D01*
Y7817D02*
X4460D01*
X4658Y7772D02*
X4682D01*
X6650Y7637D02*
X6740D01*
X6815D02*
X6950D01*
X5525Y7812D02*
X5000D01*
X5025Y7712D02*
X5425D01*
X5355Y7632D02*
X4980D01*
X5625Y7712D02*
X5785D01*
X5500Y8387D02*
Y9137D01*
X5575Y9212D02*
Y9262D01*
X5650Y7262D02*
Y7237D01*
X5565Y6949D02*
Y6925D01*
X5640D02*
Y6949D01*
X5635Y7475D02*
Y7499D01*
X5560D02*
Y7475D01*
X5625Y7912D02*
Y8202D01*
Y8512D02*
Y9137D01*
X5525Y7612D02*
Y7487D01*
X5475Y7437D02*
Y7397D01*
X4875Y7962D02*
X4800D01*
X5000Y7912D02*
X5625D01*
X6425Y7837D02*
X6700D01*
X6875Y8012D02*
X7025D01*
X6700Y7937D02*
X6575D01*
X6405Y7827D02*
X5950D01*
X5989Y7866D02*
X6719D01*
X4944D02*
X4935D01*
X6028Y7905D02*
X6758D01*
X4983D02*
X4935D01*
X6717Y7944D02*
X6797D01*
X6558D02*
X6035D01*
X5647D02*
X4903D01*
X6756Y7983D02*
X6836D01*
X6519D02*
X6035D01*
X5686D02*
X4810D01*
X4580Y7952D02*
X4520D01*
X4485Y7991D02*
X4619D01*
X4471Y7856D02*
X4460D01*
X4658Y7847D02*
X4682D01*
X4730D01*
X4985Y7912D02*
X5625D01*
X6850Y8012D02*
X7025D01*
X6750Y7912D02*
X6015D01*
X6375Y7837D02*
X6400D01*
X5700Y7462D02*
Y7312D01*
Y7362D01*
X5790Y6949D02*
Y6925D01*
X5715D02*
Y6949D01*
X5740Y7237D02*
Y7487D01*
X5785Y7712D02*
Y7872D01*
X5825Y8112D02*
X5975D01*
X6750Y8187D02*
X7025D01*
X6400Y8112D02*
X6225D01*
X6760Y8022D02*
X7015D01*
X6480D02*
X6035D01*
X5725D02*
X4810D01*
X6760Y8061D02*
X7015D01*
X6441D02*
X6035D01*
X5764D02*
X4810D01*
X6760Y8100D02*
X7015D01*
X6402D02*
X5997D01*
X5803D02*
X4810D01*
X6760Y8139D02*
X7015D01*
X6188D02*
X4810D01*
X6760Y8178D02*
X7015D01*
X6149D02*
X4810D01*
X4640Y8030D02*
X4485D01*
Y8069D02*
X4640D01*
Y8108D02*
X4485D01*
Y8147D02*
X4640D01*
Y8186D02*
X4485D01*
X7170Y8102D02*
X7190D01*
Y8141D02*
X7160D01*
Y8180D02*
X7190D01*
X6020Y8202D02*
X4850D01*
X6025Y8062D02*
Y7912D01*
Y8837D02*
Y9137D01*
X5965Y7074D02*
Y7050D01*
X6040D02*
Y7074D01*
X5965Y7500D02*
Y7524D01*
X5890D02*
Y7500D01*
X5975Y7237D02*
Y7227D01*
X6000Y6962D02*
Y6937D01*
X5965Y6997D02*
Y7050D01*
X5900Y7612D02*
Y7622D01*
X5890Y7500D02*
Y7472D01*
X5870Y7312D02*
Y7237D01*
X5900Y7987D02*
Y8027D01*
X6050Y8287D02*
X5400D01*
X4810Y8217D02*
X6110D01*
X6071Y8256D02*
X4810D01*
Y8295D02*
X5390D01*
Y8334D02*
X4810D01*
Y8373D02*
X5390D01*
X4640Y8225D02*
X4485D01*
Y8264D02*
X4640D01*
Y8303D02*
X4485D01*
Y8342D02*
X4640D01*
Y8381D02*
X4485D01*
X6625Y8287D02*
X7150D01*
X6125Y8387D02*
X5500D01*
X7160Y8219D02*
X7190D01*
Y8258D02*
X7160D01*
X7190Y8297D02*
X6625D01*
X6586Y8336D02*
X7190D01*
X6214D02*
X6186D01*
X6547Y8375D02*
X7190D01*
X6253D02*
X6147D01*
X6625Y8337D02*
X7150D01*
X6100Y8912D02*
Y9212D01*
X6145Y7074D02*
Y7050D01*
X6220D02*
Y7074D01*
X6200Y7912D02*
Y8022D01*
X6075Y7612D02*
Y7587D01*
X6090Y7112D02*
Y7062D01*
X6200Y8312D02*
Y8687D01*
Y9137D02*
Y9337D01*
X5200Y8437D02*
X4900D01*
X4810Y8412D02*
X5390D01*
Y8451D02*
X5210D01*
X4890D02*
X4810D01*
X5210Y8490D02*
X5390D01*
X4890D02*
X4810D01*
X5210Y8529D02*
X5390D01*
X4890D02*
X4810D01*
X5210Y8568D02*
X5390D01*
X4890D02*
X4810D01*
X4640Y8420D02*
X4485D01*
Y8459D02*
X4640D01*
Y8498D02*
X4485D01*
Y8537D02*
X4640D01*
Y8576D02*
X4485D01*
X6325Y8437D02*
X6475D01*
X6375Y8487D02*
X7100D01*
X7190Y8414D02*
X6508D01*
X6292D02*
X5510D01*
Y8453D02*
X7190D01*
Y8492D02*
X7110D01*
X6365D02*
X5510D01*
X7110Y8531D02*
X7190D01*
X6365D02*
X5510D01*
X7110Y8570D02*
X7190D01*
X6365D02*
X5510D01*
X6460Y8562D02*
X7010D01*
X7000Y8602D02*
X6470D01*
X6200Y8437D02*
X6950D01*
X6375Y8487D02*
Y8837D01*
X6310Y6949D02*
Y6925D01*
X6385D02*
Y6949D01*
X6375Y7162D02*
Y7837D01*
X6400D02*
Y7912D01*
Y8262D02*
Y8337D01*
X5390Y8607D02*
X5210D01*
X4890D02*
X4810D01*
X5210Y8646D02*
X5390D01*
X4890D02*
X4810D01*
X5210Y8685D02*
X5390D01*
X4890D02*
X4810D01*
X5210Y8724D02*
X5390D01*
X4890D02*
X4810D01*
X5210Y8763D02*
X5390D01*
X4890D02*
X4810D01*
X4640Y8615D02*
X4485D01*
Y8654D02*
X4640D01*
Y8693D02*
X4485D01*
Y8732D02*
X4640D01*
Y8771D02*
X4485D01*
X6900Y8772D02*
X7100D01*
X7110Y8609D02*
X7190D01*
X6365D02*
X5510D01*
X7110Y8648D02*
X7190D01*
X6365D02*
X5510D01*
X7110Y8687D02*
X7190D01*
X6365D02*
X5510D01*
X7110Y8726D02*
X7190D01*
X6365D02*
X5510D01*
X7110Y8765D02*
X7190D01*
X6365D02*
X5510D01*
X6825Y8697D02*
X7010D01*
X7000Y8641D02*
X6470D01*
Y8680D02*
X7000D01*
X6815Y8719D02*
X6470D01*
Y8758D02*
X6815D01*
Y8797D02*
X6470D01*
X6750Y8637D02*
X6950D01*
X6200Y8687D02*
X5625D01*
X6460Y8562D02*
Y8912D01*
X6485Y6949D02*
Y6925D01*
X6560D02*
Y6949D01*
X6525Y7462D02*
Y7662D01*
X6625Y8237D02*
Y8437D01*
X5400Y8987D02*
X5200D01*
X5210Y8802D02*
X5390D01*
X4890D02*
X4810D01*
X5210Y8841D02*
X5390D01*
X4890D02*
X4810D01*
X5210Y8880D02*
X5390D01*
X4890D02*
X4810D01*
X5210Y8919D02*
X5390D01*
X4890D02*
X4810D01*
X5210Y8958D02*
X5390D01*
X4890D02*
X4810D01*
Y8997D02*
X4890D01*
X4640Y8810D02*
X4485D01*
Y8849D02*
X4640D01*
Y8888D02*
X4485D01*
Y8927D02*
X4630D01*
X4591Y8966D02*
X4485D01*
X6025Y8837D02*
X6375D01*
X6900Y8987D02*
X7200D01*
X7190Y8804D02*
X6910D01*
X6365D02*
X5510D01*
X6910Y8843D02*
X7190D01*
X6015D02*
X5510D01*
X6910Y8882D02*
X7190D01*
X6015D02*
X5510D01*
X6910Y8921D02*
X7190D01*
X6015D02*
X5510D01*
X6910Y8960D02*
X7190D01*
X6015D02*
X5510D01*
X6100Y8912D02*
X6460D01*
X6470Y8836D02*
X6815D01*
Y8875D02*
X6470D01*
X6815Y8914D02*
X6110D01*
Y8953D02*
X6815D01*
Y8992D02*
X6110D01*
X6950Y8837D02*
X7150D01*
X6750Y8187D02*
Y7987D01*
X6825Y8697D02*
Y9387D01*
X6660Y6949D02*
Y6925D01*
X6735D02*
Y6949D01*
X6740Y7625D02*
Y7649D01*
X6815D02*
Y7625D01*
X6750Y8637D02*
Y9137D01*
X6650Y7637D02*
Y7487D01*
Y7397D02*
Y7362D01*
X4890Y9036D02*
X4829D01*
X4860Y9075D02*
X4890D01*
Y9114D02*
X4860D01*
Y9153D02*
X4890D01*
Y9192D02*
X4860D01*
X4552Y9005D02*
X4498D01*
X6900Y9087D02*
X7200D01*
X7190Y9127D02*
X6910D01*
Y9166D02*
X7190D01*
X6025Y9137D02*
X5500D01*
X5510Y8999D02*
X6015D01*
Y9038D02*
X5510D01*
Y9077D02*
X6015D01*
Y9116D02*
X5510D01*
X6110Y9031D02*
X6815D01*
Y9070D02*
X6110D01*
Y9109D02*
X6815D01*
Y9148D02*
X6110D01*
Y9187D02*
X6815D01*
X6750Y9137D02*
X6200D01*
X5625D02*
X5500D01*
X5300D02*
X5025D01*
X4730Y9152D02*
X4725D01*
X7025Y8187D02*
Y8012D01*
X6900Y9087D02*
Y9387D01*
Y6907D02*
Y6607D01*
X6905D02*
Y6902D01*
X6900Y8772D02*
Y8987D01*
X7010Y8697D02*
Y8562D01*
X6950Y8437D02*
Y8337D01*
Y8137D02*
Y8012D01*
X4900Y9237D02*
X4850D01*
X4860Y9231D02*
X4890D01*
X6900Y9387D02*
X7200D01*
X7190Y9205D02*
X6910D01*
Y9244D02*
X7190D01*
Y9283D02*
X6910D01*
Y9322D02*
X7190D01*
Y9361D02*
X6910D01*
X6825Y9387D02*
X4575D01*
X5575Y9212D02*
X6100D01*
X5575Y9262D02*
X5050D01*
X4975Y9337D02*
X4700D01*
X5585Y9226D02*
X6815D01*
Y9265D02*
X5057D01*
X4628D02*
X4622D01*
X5018Y9304D02*
X6815D01*
X4657D02*
X4593D01*
X4585Y9343D02*
X6815D01*
Y9382D02*
X4585D01*
X4625Y9337D02*
X6200D01*
X7200Y9387D02*
Y9087D01*
Y6907D02*
Y6607D01*
Y8062D02*
Y8987D01*
X7150Y8287D02*
Y8112D01*
X7100Y8487D02*
Y8772D01*
X7200Y8062D02*
Y7087D01*
X7150Y8112D02*
Y8837D01*
X7125Y7912D02*
Y7512D01*
D55*
X4885Y7162D02*
X4865D01*
X5730Y7112D02*
X5750D01*
X5860D02*
X5880D01*
X4885Y7287D02*
X4865D01*
X5730Y7237D02*
X5750D01*
X5860D02*
X5880D01*
X6765Y7362D02*
X6785D01*
Y7487D02*
X6765D01*
D56*
X4680Y7587D02*
Y7607D01*
X4570D02*
Y7587D01*
D60*
X5375Y7407D02*
Y7367D01*
X5475D02*
Y7407D01*
D70*
X6525Y7362D02*
D03*
X6575Y7062D02*
D03*
X6475D02*
D03*
X6375D02*
D03*
X5900Y6937D02*
D03*
X6000D02*
D03*
X5975Y7237D02*
D03*
Y7387D02*
D03*
X6225Y7362D02*
D03*
Y7462D02*
D03*
X6400Y8337D02*
D03*
X6625Y8237D02*
D03*
Y8037D02*
D03*
Y7662D02*
D03*
X6400Y7837D02*
D03*
X5900Y8027D02*
D03*
Y7797D02*
D03*
X5625Y7712D02*
D03*
Y7912D02*
D03*
Y8512D02*
D03*
Y8612D02*
D03*
X5025D02*
D03*
Y8512D02*
D03*
Y7912D02*
D03*
Y7712D02*
D03*
X5275Y7387D02*
D03*
X5575D02*
D03*
X5475Y7087D02*
D03*
X5375D02*
D03*
X5275D02*
D03*
X4625Y9102D02*
Y9202D01*
X4525D02*
Y9102D01*
X4725D02*
Y9202D01*
D80*
X4925Y7012D02*
D03*
X5025Y7412D02*
D03*
X4825D02*
D03*
X4850Y8337D02*
D03*
Y8037D02*
D03*
X4550D02*
D03*
Y8337D02*
D03*
Y8687D02*
D03*
X4850D02*
D03*
X5025Y9337D02*
D03*
X5500Y9137D02*
D03*
X6200Y8687D02*
D03*
Y8312D02*
D03*
D160*
X4682Y7847D02*
D03*
X4658D02*
D03*
X4682Y7772D02*
D03*
X4658D02*
D03*
X4770Y7585D02*
D03*
Y7609D02*
D03*
X4845Y7585D02*
D03*
Y7609D02*
D03*
X4987Y7197D02*
D03*
X4963D02*
D03*
X4987Y7272D02*
D03*
X4963D02*
D03*
X5363Y7237D02*
D03*
X5387D02*
D03*
X5263Y7162D02*
D03*
X5287D02*
D03*
X5263Y7237D02*
D03*
X5287D02*
D03*
X5363Y7162D02*
D03*
X5387D02*
D03*
X5715Y6949D02*
D03*
Y6925D02*
D03*
X5565Y6949D02*
D03*
Y6925D02*
D03*
X5640Y6949D02*
D03*
Y6925D02*
D03*
X5790Y6949D02*
D03*
Y6925D02*
D03*
X5965Y7074D02*
D03*
Y7050D02*
D03*
X6815Y7649D02*
D03*
Y7625D02*
D03*
X6740Y7649D02*
D03*
Y7625D02*
D03*
X6662Y7472D02*
D03*
X6638D02*
D03*
X6662Y7397D02*
D03*
X6638D02*
D03*
X6735Y6925D02*
D03*
Y6949D02*
D03*
X6660Y6925D02*
D03*
Y6949D02*
D03*
X6560Y6925D02*
D03*
Y6949D02*
D03*
X6485Y6925D02*
D03*
Y6949D02*
D03*
X6385Y6925D02*
D03*
Y6949D02*
D03*
X6310Y6925D02*
D03*
Y6949D02*
D03*
X6220Y7074D02*
D03*
Y7050D02*
D03*
X6145Y7074D02*
D03*
Y7050D02*
D03*
X6040Y7074D02*
D03*
Y7050D02*
D03*
X6063Y7512D02*
D03*
X6087D02*
D03*
X6063Y7587D02*
D03*
X6087D02*
D03*
X5965Y7524D02*
D03*
Y7500D02*
D03*
X5890Y7524D02*
D03*
Y7500D02*
D03*
X5635Y7475D02*
D03*
Y7499D02*
D03*
X5560Y7475D02*
D03*
Y7499D02*
D03*
X4808Y7843D02*
D03*
Y7851D02*
D03*
X4770Y7743D02*
D03*
Y7751D02*
D03*
X4845Y7743D02*
D03*
Y7751D02*
D03*
D165*
X4865Y7287D02*
D03*
X4885D02*
D03*
X4865Y7162D02*
D03*
X4885D02*
D03*
X5860Y7112D02*
D03*
X5880D02*
D03*
X5750D02*
D03*
X5730D02*
D03*
X5750Y7237D02*
D03*
X5730D02*
D03*
X5860D02*
D03*
X5880D02*
D03*
X6765Y7362D02*
D03*
X6785D02*
D03*
X6765Y7487D02*
D03*
X6785D02*
D03*
D166*
X4570Y7607D02*
D03*
Y7587D02*
D03*
X4680Y7607D02*
D03*
Y7587D02*
D03*
D180*
X4525Y9102D02*
D03*
Y9202D02*
D03*
X5900Y8202D02*
D03*
Y7622D02*
D03*
X5575Y7087D02*
D03*
X6100Y6937D02*
D03*
X6125Y7237D02*
D03*
X6525Y7462D02*
D03*
Y7662D02*
D03*
D190*
X5025Y8937D02*
D03*
X5300Y9137D02*
D03*
X6200D02*
D03*
Y7912D02*
D03*
D210*
X6950Y8837D02*
D03*
Y8637D02*
D03*
Y8337D02*
D03*
Y8137D02*
D03*
Y7837D02*
D03*
Y7637D02*
D03*
Y7137D02*
D03*
Y7337D02*
D03*
M02*
